<!DOCTYPE svg PUBLIC "-//W3C//DTD SVG 1.1//EN" "http://www.w3.org/Graphics/SVG/1.1/DTD/svg11.dtd">
<!-- Uploaded to: SVG Repo, www.svgrepo.com, Transformed by: SVG Repo Mixer Tools -->
<svg height="256px" width="256px" version="1.1" id="Capa_1" xmlns="http://www.w3.org/2000/svg" xmlns:xlink="http://www.w3.org/1999/xlink" viewBox="-2.27 -2.27 231.21 231.21" xml:space="preserve" fill="#000000" transform="rotate(0)" stroke="#000000" stroke-width="1.5866900000000002">
<g id="SVGRepo_bgCarrier" stroke-width="0"/>
<g id="SVGRepo_tracerCarrier" stroke-linecap="round" stroke-linejoin="round" stroke="#CCCCCC" stroke-width="0.45333999999999997"/>
<g id="SVGRepo_iconCarrier"> <g> <g> <path style="fill:#010002;" d="M197.609,67.258c-1.501,0-2.72,1.218-2.72,2.72c0,0.19-0.027,0.375-0.027,0.566 c-0.305,33.521-27.092,60.695-60.009,60.695c-23.997,0-45.558-14.484-55.092-36.92c-0.071-0.163-0.152-0.315-0.218-0.479 c-0.577-1.387-2.17-2.051-3.552-1.474c-1.387,0.571-2.045,2.165-1.474,3.552c10.274,24.759,33.956,40.755,60.336,40.755 c36.105,0,65.475-29.92,65.475-66.705C200.329,68.471,199.11,67.258,197.609,67.258z"/> <path style="fill:#010002;" d="M200.454,159.467c1.104,0.685,2.54,0.479,3.421-0.49c32.324-35.419,29.958-90.414-5.113-122.966 c-0.185-0.169-0.337-0.359-0.522-0.522c-1.104-1.017-2.828-0.941-3.84,0.174c-0.375,0.413-0.593,0.908-0.669,1.42 c0.06-0.533,0.267-1.05,0.669-1.496c1.012-1.115,2.736-1.153,3.84-0.136c0.185,0.169,0.337,0.375,0.522,0.544 c0.082-0.049,0.158-0.076,0.239-0.125c1.289-0.772,1.708-2.437,0.941-3.726c-0.767-1.289-2.437-2.91-3.731-2.138 c-1.387,0.838-2.779,1.153-4.166,1.153c-50.219,27.195-99.48,10.878-114.144,0h-3.584c0,0.337,0,0.528,0,0.794 c0-0.435-1.006-0.707-1.055-0.734c-0.06-0.033,0.005-0.038-0.054-0.065c-0.163-0.082-0.272-0.136-0.446-0.185 c-0.174-0.049-0.315-0.092-0.5-0.109c-0.065-0.005-0.109-0.038-0.174-0.038c-0.114,0-0.201,0.049-0.305,0.065 c-0.179,0.022-0.354,0.049-0.517,0.103c-0.174,0.054-0.332,0.136-0.49,0.228c-0.141,0.082-0.277,0.163-0.397,0.267 c-0.147,0.125-0.272,0.272-0.392,0.424c-0.065,0.082-0.152,0.131-0.207,0.223c-0.033,0.054-0.033,0.12-0.065,0.174 c-0.087,0.169-0.136,0.343-0.185,0.522c-0.049,0.169-0.092,0.343-0.103,0.522c-0.005,0.065-0.038,0.125-0.038,0.19 c0,36.763-29.909,66.667-66.667,66.667c-1.061,0-2.023,0.615-2.469,1.572c-0.446,0.963-0.294,2.094,0.392,2.899 c1.033,1.229,25.553,29.54,77.817,30.529c-0.43,7.103-2.507,25.792-12.477,25.792c-1.153,0-2.187,0.734-2.567,1.822 c-0.381,1.093-0.027,2.306,0.876,3.03c0.294,0.234,4.052,3.149,10.612,6.266C67.61,181.506,63.7,193.575,63.7,207.407 c0,1.501,1.218,1.615,2.72,1.615s2.72,1.621,2.72-3.818h-0.207c0.267-13.908,4.743-23.067,11.291-30.736 c-0.065-0.027-0.12-0.092-0.185-0.125c0.109,0.044,0.207,0.087,0.315,0.125c1.267-1.485,2.622-2.861,4.041-4.155 c16.518-14.995,42.354-17.318,56.289-17.318c6.413,0,15.371,0.506,24.775,2.48c2.279,0.479,4.569,1.028,6.87,1.692 c0.103-0.076,0.207-0.152,0.305-0.228c19.581,5.999,37.666,18.765,37.666,49.207v-0.936h1.931c0,5.439,1.218,3.976,2.72,3.976 s2.72-0.587,2.72-2.089c0-26.619-14.43-45.286-39.868-54.162c4.612-3.72,9.301-7.849,14.065-12.581 c2.045-0.473,6.358-0.903,8.349,1.213c2.083,2.225,1.768,7.424-0.897,14.637C198.866,157.427,199.344,158.792,200.454,159.467z M197.609,29.968C142.087,67.987,87.37,38.692,74.812,32.062c0-0.103,0.011-0.903,0.011-0.903h1.67 C91.673,42.037,144.258,66.502,197.609,29.968z M214.949,205.209c0-26.766-15.692-43.284-38.77-50.975 c0.044-0.038,0.092-0.071,0.136-0.109C199.317,161.838,214.949,178.498,214.949,205.209z M189.695,135.296 c-0.435,0.125-0.832,0.364-1.153,0.685c-5.891,5.891-11.656,10.911-17.285,15.251c-9.056-2.388-19.26-3.671-30.578-3.671 c-27.462,0-48.593,7.321-61.712,20.571c-2.611-1.18-4.814-2.355-6.56-3.383c11.444-6.701,11.596-31.03,11.596-32.226 c0-1.501-1.218-2.72-2.72-2.72c-39.303,0-63.001-16.48-72.149-24.432C44.44,102.242,72.44,73.535,74.61,37.969 c0.011-0.196,0.016-0.386,0.027-0.582c9.018,4.552,32.836,15.235,62.549,15.235c17.508,0,37.04-3.557,56.746-14.109 c0.016,0.044,0,0.098,0.022,0.141c0.147,0.315,0.354,0.604,0.625,0.854c30.513,27.848,35.115,73.645,12.412,106.812 c0.038-3.59-0.897-6.424-2.812-8.469C199.225,132.56,190.082,135.181,189.695,135.296z"/> <path style="fill:#010002;" d="M85.907,21.179c-4.705-2.105-7.305-3.421-7.392-3.476c-1.262-0.816-2.948-0.315-3.758,0.946 c-0.816,1.256-0.462,1.822,0.794,2.643c0.702,0.457,10.606,9.866,27.946,9.866c9.089,5.439,20.184,4.525,33.157,4.525 c6.092,0,12.586,0.223,19.461-0.636c1.3-0.163,2.219,1.294,2.317-3.16c0.011,0.049,0.038,0.071,0.044,0.12 c0.011,0.12-0.027-0.848-0.027-0.848h-0.288c-0.517-0.805-1.572-1.066-2.72-0.908c-3.568,0.446-7-0.185-10.361,0l10.693,0.908 l-10.699-0.609C116.834,32.106,96.192,25.775,85.907,21.179z M77.036,19.09l0.571,0.136c2.921,2.143,17.536,11.933,41.114,11.933 C92.249,31.159,77.036,19.09,77.036,19.09z"/> <circle style="fill:#010002;" cx="106.005" cy="77.348" r="7.37"/> <path style="fill:#010002;" d="M171.306,69.978c-3.927,0-7.103,3.079-7.326,6.946c-0.011,0.141-0.044,0.277-0.044,0.424 c0,4.068,3.301,7.37,7.37,7.37c4.068,0,7.37-3.302,7.37-7.37c0-1.191-0.31-2.295-0.81-3.291 C176.653,71.648,174.189,69.978,171.306,69.978z"/> <path style="fill:#010002;" d="M150.474,90.353c-4.112,4.112-10.802,4.112-14.914,0c-1.061-1.061-2.785-1.061-3.845,0 c-1.061,1.061-1.061,2.785,0,3.845c3.117,3.117,7.212,4.672,11.302,4.672c4.09,0,8.186-1.556,11.302-4.672 c1.061-1.061,1.061-2.785,0-3.845C153.259,89.292,151.54,89.292,150.474,90.353z"/> <path style="fill:#010002;" d="M129.382,64.457c5.02,1.659,10.47,2.339,16.018,2.339c24.269,0,50.502-12.983,51.845-13.657 c1.343-0.674,1.887-2.312,1.213-3.655c-0.669-1.338-2.306-1.882-3.65-1.213c-0.12,0.06-4.036,1.996-10.106,4.357 c-11.672,4.542-31.318,10.617-47.499,8.066c-2.099-0.332-4.161-0.756-6.114-1.403c-1.447-0.484-2.964,0.305-3.432,1.73 C127.179,62.45,127.951,63.99,129.382,64.457z"/> </g> </g> </g>
</svg>